<svg width="805" height="74" viewBox="0 0 805 74" fill="none" xmlns="http://www.w3.org/2000/svg">
<path d="M74.9792 69.56H804V0H0L74.9792 69.56Z" fill="white"/>
<path d="M98.3864 70H120.568C125.045 70 127.266 64.5695 124.072 61.4329L62.9848 1.43286C62.0499 0.514536 60.7917 0 59.4812 0H34.6997C30.1729 0 27.9762 5.53522 31.271 8.63931L94.9577 68.6393C95.8854 69.5133 97.1118 70 98.3864 70Z" fill="#28B7BF"/>
<path d="M151.428 70H209.434C210.482 70 211.003 68.7289 210.257 67.9928L142.757 1.43958C141.821 0.517134 140.56 0 139.246 0H89.7571C85.2694 0 83.0539 5.45432 86.2704 8.58374L147.941 68.5837C148.874 69.4919 150.125 70 151.428 70Z" fill="#118DA7"/>
<path d="M235.942 70H795.74C799.252 70 801.007 70 802.268 69.1573C802.814 68.7926 803.283 68.3238 803.648 67.7779C804.49 66.5167 804.49 64.7612 804.49 61.25V8.75C804.49 5.23884 804.49 3.48327 803.648 2.22215C803.283 1.6762 802.814 1.20744 802.268 0.842652C801.007 0 799.252 0 795.74 0H181.602C173.827 0 169.939 0 168.438 1.85306C167.811 2.62724 167.43 3.57107 167.343 4.56351C167.134 6.93902 169.93 9.64029 175.522 15.0428L175.522 15.0428L229.863 67.5428C230.937 68.5808 231.474 69.0998 232.117 69.4347C232.402 69.5827 232.699 69.703 233.006 69.794C233.702 70 234.449 70 235.942 70Z" fill="#08192D"/>
</svg>
